D:\Gebruiker\Documents\~school~\WTK\thesis\model\3dpredictsim_Lars\Results\Test_Lars\Test1_alphaCst_exo_GRF.mot
nRows=15
nColumns=19

name D:\Gebruiker\Documents\~school~\WTK\thesis\model\3dpredictsim_Lars\Results\Test_Lars\Test1_alphaCst_exo_GRF.mot
datacolumns 19
datarows 15
range 0.0000000000 0.1637079572
endheader
time 	ground_force_vx	ground_force_vy	ground_force_vz	ground_force_px	ground_force_py	ground_force_pz	1_ground_force_vx	1_ground_force_vy	1_ground_force_vz	1_ground_force_px	1_ground_force_py	1_ground_force_pz	ground_torque_x	ground_torque_y	ground_torque_z	1_ground_torque_x	1_ground_torque_y	1_ground_torque_z
        0.0000000000	      -71.3991327619	       55.2697434737	       18.2612788562	        0.1642620512	        0.0000000000	        0.0519198046	       99.6201508943	      408.2155215373	       -4.2993958555	       -0.3470242954	        0.0000000000	       -0.0340002225	        0.0000000000	        0.0000000000	        0.0000000000	        0.0000000000	        0.0000000000	        0.0000000000	
        0.0116934255	     -136.6104466645	      140.1017732987	       50.8143041357	        0.1727344456	        0.0000000000	        0.0500045479	       66.1002296767	      306.2854295019	       -9.6996709973	       -0.3391622424	        0.0000000000	       -0.0306069776	        0.0000000000	        0.0000000000	        0.0000000000	        0.0000000000	        0.0000000000	        0.0000000000	
        0.0233868510	      -63.0014050333	      310.2660107552	       20.0080498113	        0.1795134092	        0.0000000000	        0.0482806932	       35.3951254108	      204.2343043658	      -14.9919045103	       -0.3259191784	        0.0000000000	       -0.0243324233	        0.0000000000	        0.0000000000	        0.0000000000	        0.0000000000	        0.0000000000	        0.0000000000	
        0.0350802766	      -57.5149805007	      528.3414551392	       -4.3787931209	        0.1858287344	        0.0000000000	        0.0489497724	       24.1425067754	      159.5081544168	      -15.0569079269	       -0.3212641681	        0.0000000000	       -0.0218378274	        0.0000000000	        0.0000000000	        0.0000000000	        0.0000000000	        0.0000000000	        0.0000000000	
        0.0467737021	      -97.5590737633	      765.5633199790	      -16.3454682408	        0.1956160922	        0.0000000000	        0.0512518143	       19.5897996704	      116.8222356279	      -16.3102377038	       -0.3208418596	        0.0000000000	       -0.0220494347	        0.0000000000	        0.0000000000	        0.0000000000	        0.0000000000	        0.0000000000	        0.0000000000	
        0.0584671276	     -122.9418247632	      883.5243592777	      -21.9660553707	        0.2019751801	        0.0000000000	        0.0526495528	        8.3041003358	       64.3954994355	      -13.9156404578	       -0.3207144865	        0.0000000000	       -0.0222784331	        0.0000000000	        0.0000000000	        0.0000000000	        0.0000000000	        0.0000000000	        0.0000000000	
        0.0701605531	     -126.9899112685	      903.5073291796	      -22.0329890259	        0.2061722193	        0.0000000000	        0.0534462020	       -3.5837576152	        9.8437401448	       -2.8513453769	        0.0000000000	        0.0000000000	        0.0000000000	        0.0000000000	        0.0000000000	        0.0000000000	        0.0000000000	        0.0000000000	        0.0000000000	
        0.0818539786	     -116.0736358550	      875.5220762252	      -21.9815197514	        0.2099414191	        0.0000000000	        0.0538580081	        0.0021148464	       -0.0019164466	        0.0000137793	        0.0000000000	        0.0000000000	        0.0000000000	        0.0000000000	        0.0000000000	        0.0000000000	        0.0000000000	        0.0000000000	        0.0000000000	
        0.0935474041	     -102.1347909678	      825.6518151173	      -20.6043424289	        0.2139848438	        0.0000000000	        0.0539674137	        0.0004237069	       -0.0003240104	       -0.0000167005	        0.0000000000	        0.0000000000	        0.0000000000	        0.0000000000	        0.0000000000	        0.0000000000	        0.0000000000	        0.0000000000	        0.0000000000	
        0.1052408297	      -90.8626733870	      779.6770947107	      -20.0172886232	        0.2187418011	        0.0000000000	        0.0538444708	        0.0016737664	       -0.0011183382	       -0.0000960060	        0.0000000000	        0.0000000000	        0.0000000000	        0.0000000000	        0.0000000000	        0.0000000000	        0.0000000000	        0.0000000000	        0.0000000000	
        0.1169342552	      -81.4367106596	      743.2338056079	      -19.7957287886	        0.2241786469	        0.0000000000	        0.0535287451	        0.0246684695	       -0.0148746975	       -0.0016045040	        0.0000000000	        0.0000000000	        0.0000000000	        0.0000000000	        0.0000000000	        0.0000000000	        0.0000000000	        0.0000000000	        0.0000000000	
        0.1286276807	      -72.3471275743	      710.6863229004	      -20.1044217175	        0.2295130225	        0.0000000000	        0.0531410429	       -0.1259290598	        0.0702178623	        0.0088464002	        0.0000000000	        0.0000000000	        0.0000000000	        0.0000000000	        0.0000000000	        0.0000000000	        0.0000000000	        0.0000000000	        0.0000000000	
        0.1403211062	      -63.3621141533	      681.2214393708	      -20.4353013563	        0.2344097082	        0.0000000000	        0.0528234695	       -0.0863419015	        0.0454983897	        0.0060921125	        0.0000000000	        0.0000000000	        0.0000000000	        0.0000000000	        0.0000000000	        0.0000000000	        0.0000000000	        0.0000000000	        0.0000000000	
        0.1520145317	      -54.8293108692	      656.6173087217	      -20.9915772915	        0.2390835041	        0.0000000000	        0.0525770136	       -0.0521269832	        0.0262190405	        0.0037599334	        0.0000000000	        0.0000000000	        0.0000000000	        0.0000000000	        0.0000000000	        0.0000000000	        0.0000000000	        0.0000000000	        0.0000000000	
        0.1637079572	      -47.1399703132	      636.4534411316	      -21.3854059086	        0.2437223857	        0.0000000000	        0.0523778569	       -0.0372365805	        0.0180030793	        0.0027449638	        0.0000000000	        0.0000000000	        0.0000000000	        0.0000000000	        0.0000000000	        0.0000000000	        0.0000000000	        0.0000000000	        0.0000000000	
